<?xml version="1.0" encoding="UTF-8" standalone="no"?>
<!-- Created with Inkscape (http://www.inkscape.org/) -->

<svg
   xmlns:dc="http://purl.org/dc/elements/1.1/"
   xmlns:cc="http://creativecommons.org/ns#"
   xmlns:rdf="http://www.w3.org/1999/02/22-rdf-syntax-ns#"
   xmlns:svg="http://www.w3.org/2000/svg"
   xmlns="http://www.w3.org/2000/svg"
   xmlns:sodipodi="http://sodipodi.sourceforge.net/DTD/sodipodi-0.dtd"
   xmlns:inkscape="http://www.inkscape.org/namespaces/inkscape"
   width="744.09448819"
   height="1052.3622047"
   id="svg2"
   version="1.1"
   inkscape:version="0.48.4 r9939"
   sodipodi:docname="azure-hierarchy.svg">
  <defs
     id="defs4" />
  <sodipodi:namedview
     id="base"
     pagecolor="#ffffff"
     bordercolor="#666666"
     borderopacity="1.0"
     inkscape:pageopacity="0.0"
     inkscape:pageshadow="2"
     inkscape:zoom="0.98573698"
     inkscape:cx="450.8647"
     inkscape:cy="625.04762"
     inkscape:document-units="px"
     inkscape:current-layer="svg2"
     showgrid="false"
     inkscape:window-width="1280"
     inkscape:window-height="971"
     inkscape:window-x="-8"
     inkscape:window-y="-8"
     inkscape:window-maximized="1">
    <inkscape:grid
       type="xygrid"
       id="grid8462" />
  </sodipodi:namedview>
  <metadata
     id="metadata7">
    <rdf:RDF>
      <cc:Work
         rdf:about="">
        <dc:format>image/svg+xml</dc:format>
        <dc:type
           rdf:resource="http://purl.org/dc/dcmitype/StillImage" />
        <dc:title></dc:title>
      </cc:Work>
    </rdf:RDF>
  </metadata>
  <rect
     style="color:#000000;fill:#ffffff;fill-opacity:1;fill-rule:nonzero;stroke:none;stroke-width:1;stroke-linecap:butt;stroke-linejoin:miter;stroke-miterlimit:4;stroke-opacity:1;stroke-dasharray:none;stroke-dashoffset:0;marker:none;visibility:visible;display:inline;overflow:visible;enable-background:accumulate"
     id="rect3087"
     width="399"
     height="379"
     x="207.18549"
     y="397.25104"
     ry="0"
     inkscape:export-filename="C:\Users\stephen\Desktop\azure-hierarchy-small.png"
     inkscape:export-xdpi="95.936676"
     inkscape:export-ydpi="95.936676" />
  <g
     inkscape:label="Layer 1"
     inkscape:groupmode="layer"
     id="layer1" />
  <text
     xml:space="preserve"
     style="font-size:12px;font-style:normal;font-weight:normal;line-height:125%;letter-spacing:0px;word-spacing:0px;fill:#000000;fill-opacity:1;stroke:none;font-family:Sans"
     x="43.757622"
     y="279.07159"
     id="text8732"
     sodipodi:linespacing="125%"><tspan
       sodipodi:role="line"
       id="tspan8734"
       x="43.757622"
       y="279.07159">https://docs.microsoft.com/en-us/azure/active-directory/role-based-access-control-what-is</tspan></text>
  <text
     xml:space="preserve"
     style="font-size:12px;font-style:normal;font-weight:normal;line-height:125%;letter-spacing:0px;word-spacing:0px;fill:#000000;fill-opacity:1;stroke:none;font-family:Sans"
     x="71.733818"
     y="612.63385"
     id="text8736"
     sodipodi:linespacing="125%"><tspan
       sodipodi:role="line"
       id="tspan8738" /></text>
  <text
     xml:space="preserve"
     style="font-size:12px;font-style:normal;font-weight:normal;line-height:125%;letter-spacing:0px;word-spacing:0px;fill:#000000;fill-opacity:1;stroke:none;font-family:Sans"
     x="40.888279"
     y="311.35181"
     id="text8752"
     sodipodi:linespacing="125%"><tspan
       sodipodi:role="line"
       id="tspan8754"
       x="40.888279"
       y="311.35181">Each subscription in Azure belongs to only one directory.</tspan><tspan
       sodipodi:role="line"
       x="40.888279"
       y="326.35181"
       id="tspan8756">Each resource group belongs to only one subscription.</tspan><tspan
       sodipodi:role="line"
       x="40.888279"
       y="341.35181"
       id="tspan8758">Each resource belongs to only one resource group.</tspan></text>
  <g
     id="g3089"
     transform="translate(0,40.607715)">
    <g
       transform="translate(395.60654,483.16047)"
       id="g4346">
      <path
         style="fill:#fcd116"
         inkscape:connector-curvature="0"
         d="m 39.337,19.525 c 2.222,-2.22 2.222,-5.824 0,-8.045 L 29.525,1.667 c -2.222,-2.222 -5.824,-2.222 -8.046,0 l -9.813,9.813 c -2.221,2.221 -2.221,5.825 0,8.045 l 8.633,8.633 v 16.641 l 5.202,5.202 4.519,-4.519 v -0.033 l 2.652,-2.653 -2.629,-2.629 2.629,-2.629 -2.629,-2.629 2.629,-2.629 -2.652,-2.653 v -0.784 l 9.317,-9.318 z M 25.502,4.039 c 1.783,0 3.229,1.446 3.229,3.229 0,1.784 -1.446,3.229 -3.229,3.229 -1.783,0 -3.229,-1.445 -3.229,-3.229 0,-1.784 1.446,-3.229 3.229,-3.229 z"
         id="path4332" />
      <polygon
         style="opacity:0.4;fill:#ff8c00"
         enable-background="new    "
         points="24.758,45.961 24.758,30.008 22.728,29.008 22.728,43.961 "
         id="polygon4334" />
      <rect
         style="opacity:0.5;fill:#ffffff"
         x="15.868"
         y="13.617"
         enable-background="new    "
         width="18.639999"
         height="2.6789999"
         id="rect4336" />
      <rect
         style="opacity:0.5;fill:#ffffff"
         x="15.868"
         y="17.976"
         enable-background="new    "
         width="18.639999"
         height="2.6789999"
         id="rect4338" />
    </g>
    <g
       transform="translate(326.60025,387.25539)"
       id="g4402">
      <path
         style="fill:#59b4d9"
         inkscape:connector-curvature="0"
         d="m 25.001,50.001 c -1.232,0 -2.392,-0.48 -3.261,-1.352 L 1.351,28.261 C 0.492,27.402 0,26.215 0,25 0,23.786 0.492,22.598 1.351,21.74 L 21.74,1.352 C 22.611,0.48 23.769,0 25.001,0 c 1.231,0 2.39,0.48 3.261,1.352 L 48.648,21.74 C 49.521,22.608 50,23.767 50,25 c 0,1.233 -0.479,2.392 -1.353,3.263 L 28.262,48.649 c -0.87,0.872 -2.03,1.352 -3.261,1.352"
         id="path4378" />
      <path
         style="fill:#ffffff"
         inkscape:connector-curvature="0"
         d="m 38.614,21.093 c -2.16,0 -3.91,1.75 -3.91,3.909 0,0.792 0.239,1.527 0.645,2.143 l -7.744,7.744 C 27.399,34.745 27.178,34.625 26.949,34.516 V 14.759 C 28.116,14.083 28.91,12.835 28.91,11.389 28.91,9.23 27.16,7.48 25,7.48 c -2.158,0 -3.908,1.75 -3.908,3.909 0,1.446 0.794,2.694 1.96,3.37 v 19.756 c -0.219,0.104 -0.434,0.216 -0.632,0.353 l -7.753,-7.753 c 0.394,-0.61 0.628,-1.333 0.628,-2.113 0,-2.159 -1.75,-3.909 -3.908,-3.909 -2.16,0 -3.91,1.75 -3.91,3.909 0,2.159 1.75,3.909 3.91,3.909 0.448,0 0.872,-0.091 1.274,-0.23 l 8.15,8.15 c -0.234,0.548 -0.364,1.15 -0.364,1.783 0,2.513 2.038,4.551 4.551,4.551 2.514,0 4.551,-2.038 4.551,-4.551 0,-0.621 -0.126,-1.212 -0.351,-1.751 l 8.173,-8.172 c 0.392,0.132 0.804,0.22 1.241,0.22 2.158,0 3.908,-1.75 3.908,-3.909 0,-2.159 -1.749,-3.909 -3.906,-3.909 z"
         id="path4380" />
      <rect
         style="opacity:0.5;fill:#ffffff"
         x="31.006001"
         y="8.2259998"
         transform="matrix(-0.707,0.7072,-0.7072,-0.707,68.2099,8.8718)"
         width="2.523"
         height="20.676001"
         id="rect4382" />
      <rect
         style="opacity:0.5;fill:#ffffff"
         x="16.487"
         y="8.2419996"
         transform="matrix(0.7071,0.7071,-0.7071,0.7071,18.3355,-7.1088)"
         width="2.5239999"
         height="20.677"
         id="rect4384" />
      <path
         style="fill:#b8d432"
         inkscape:connector-curvature="0"
         d="m 27.665,38.614 c 0,1.496 -1.214,2.709 -2.71,2.709 -1.497,0 -2.709,-1.213 -2.709,-2.709 0,-1.496 1.212,-2.709 2.709,-2.709 1.495,0 2.71,1.213 2.71,2.709"
         id="path4386" />
      <path
         style="fill:#b8d432"
         inkscape:connector-curvature="0"
         d="m 27.174,11.389 c 0,1.201 -0.973,2.174 -2.174,2.174 -1.201,0 -2.174,-0.973 -2.174,-2.174 0,-1.201 0.973,-2.174 2.174,-2.174 1.201,0 2.174,0.973 2.174,2.174"
         id="path4388" />
      <path
         style="fill:#b8d432"
         inkscape:connector-curvature="0"
         d="m 13.563,25.001 c 0,1.201 -0.975,2.174 -2.174,2.174 -1.201,0 -2.174,-0.973 -2.174,-2.174 0,-1.201 0.973,-2.174 2.174,-2.174 1.199,0 2.174,0.973 2.174,2.174"
         id="path4390" />
      <path
         style="fill:#b8d432"
         inkscape:connector-curvature="0"
         d="m 40.788,25.001 c 0,1.201 -0.975,2.174 -2.175,2.174 -1.2,0 -2.174,-0.973 -2.174,-2.174 0,-1.201 0.974,-2.174 2.174,-2.174 1.2,0 2.175,0.973 2.175,2.174"
         id="path4392" />
      <path
         style="opacity:0.1;fill:#ffffff"
         inkscape:connector-curvature="0"
         d="M 28.262,1.352 C 27.391,0.48 26.233,0 25.001,0 23.77,0 22.612,0.48 21.741,1.352 L 1.352,21.74 C 0.492,22.598 0,23.786 0,25 c 0,1.215 0.492,2.403 1.352,3.261 L 12.895,39.805 34.61,7.699 28.262,1.352 z"
         id="path4394" />
    </g>
    <g
       transform="translate(395.99288,574.42191)"
       id="g4533">
      <path
         style="fill:#3999c6"
         inkscape:connector-curvature="0"
         d="m 25.047,22.647 c -0.078,0 -0.15,-0.023 -0.22,-0.064 l -14.711,-8.49 c -0.14,-0.08 -0.223,-0.228 -0.223,-0.389 0,-0.156 0.083,-0.304 0.223,-0.382 L 24.732,4.887 c 0.139,-0.077 0.309,-0.077 0.442,0 l 14.714,8.495 c 0.133,0.078 0.221,0.224 0.221,0.382 0,0.163 -0.088,0.308 -0.221,0.387 l -14.619,8.433 c -0.069,0.04 -0.143,0.063 -0.222,0.063"
         id="path4515" />
      <path
         style="fill:#59b4d9"
         inkscape:connector-curvature="0"
         d="m 22.932,43.284 c -0.08,0 -0.158,-0.019 -0.226,-0.059 L 8.042,34.761 C 7.9,34.682 7.816,34.537 7.816,34.375 V 17.39 c 0,-0.159 0.084,-0.305 0.226,-0.389 0.134,-0.077 0.306,-0.077 0.448,0 l 14.662,8.464 c 0.136,0.082 0.218,0.228 0.218,0.387 v 16.987 c 0,0.163 -0.083,0.305 -0.218,0.386 -0.073,0.041 -0.146,0.059 -0.22,0.059"
         id="path4517" />
      <path
         style="fill:#59b4d9"
         inkscape:connector-curvature="0"
         d="m 27.081,43.284 c -0.075,0 -0.152,-0.019 -0.226,-0.059 -0.136,-0.081 -0.22,-0.223 -0.22,-0.386 V 25.962 c 0,-0.159 0.084,-0.305 0.22,-0.387 l 14.66,-8.461 c 0.142,-0.078 0.308,-0.078 0.448,0 0.134,0.08 0.22,0.227 0.22,0.385 v 16.877 c 0,0.162 -0.085,0.306 -0.22,0.386 l -14.665,8.464 c -0.061,0.04 -0.14,0.058 -0.217,0.058"
         id="path4519" />
      <path
         style="opacity:0.5;fill:#ffffff"
         inkscape:connector-curvature="0"
         d="m 27.081,43.284 c -0.075,0 -0.152,-0.019 -0.226,-0.059 -0.136,-0.081 -0.22,-0.223 -0.22,-0.386 V 25.962 c 0,-0.159 0.084,-0.305 0.22,-0.387 l 14.66,-8.461 c 0.142,-0.078 0.308,-0.078 0.448,0 0.134,0.08 0.22,0.227 0.22,0.385 v 16.877 c 0,0.162 -0.085,0.306 -0.22,0.386 l -14.665,8.464 c -0.061,0.04 -0.14,0.058 -0.217,0.058"
         id="path4521" />
      <path
         style="fill:#7a7a7a"
         inkscape:connector-curvature="0"
         d="m 9.558,45.171 c -0.247,0 -0.497,-0.063 -0.726,-0.195 L 1.987,41.024 C 0.835,40.358 0,38.911 0,37.582 V 12.418 C 0,11.089 0.835,9.641 1.987,8.977 L 8.832,5.025 c 0.697,-0.401 1.586,-0.163 1.987,0.532 0.402,0.696 0.163,1.585 -0.532,1.987 L 3.442,11.496 C 3.199,11.637 2.91,12.137 2.91,12.418 v 25.164 c 0,0.281 0.289,0.782 0.532,0.922 l 6.845,3.952 c 0.696,0.402 0.934,1.291 0.532,1.987 -0.269,0.467 -0.758,0.728 -1.261,0.728 z"
         id="path4523" />
      <path
         style="fill:#7a7a7a"
         inkscape:connector-curvature="0"
         d="m 40.442,4.829 c 0.247,0 0.497,0.063 0.726,0.195 l 6.845,3.952 C 49.165,9.642 50,11.089 50,12.418 v 25.164 c 0,1.329 -0.835,2.777 -1.987,3.441 l -6.845,3.952 c -0.697,0.401 -1.586,0.163 -1.987,-0.532 -0.402,-0.696 -0.163,-1.585 0.532,-1.987 l 6.845,-3.952 c 0.243,-0.141 0.532,-0.641 0.532,-0.922 V 12.418 c 0,-0.281 -0.289,-0.782 -0.532,-0.922 L 39.713,7.544 C 39.017,7.142 38.779,6.253 39.181,5.557 39.45,5.09 39.939,4.829 40.442,4.829 z"
         id="path4525" />
    </g>
    <g
       transform="matrix(0.69999988,0,0,0.69999988,342.20743,666.03471)"
       id="g4942">
      <path
         style="fill:#59b4d9"
         inkscape:connector-curvature="0"
         d="m 40.193,44.839 c -4.53,3.464 -9.867,5.151 -15.167,5.151 -7.52,0 -14.956,-3.376 -19.87,-9.803 C -3.24,29.225 -1.168,13.548 9.814,5.148 14.343,1.663 19.686,0 24.979,0 c 7.52,0 14.958,3.376 19.87,9.809 8.398,10.959 6.305,26.639 -4.656,35.03"
         id="path4932" />
      <path
         style="fill:#ffffff"
         inkscape:connector-curvature="0"
         d="m 35.6,29.378 c 1.816,2.368 5.186,2.796 7.541,1.004 0.123,-0.094 0.218,-0.208 0.33,-0.309 2.409,1.697 4.082,2.817 5.025,3.459 0.279,-0.723 0.472,-1.417 0.67,-2.142 -0.996,-0.741 -2.343,-1.778 -4.29,-3.356 0.639,-1.68 0.437,-3.64 -0.73,-5.171 C 42.477,20.703 39.52,20.154 37.21,21.486 34.664,19.202 31.867,16.584 28.917,13.653 38.082,8.724 44.593,9.446 44.593,9.446 43.506,8.06 42.288,6.846 40.987,5.749 37.122,5.152 31.118,5.219 24.258,8.868 l -0.002,-0.003 -0.001,0 C 21.969,6.472 19.642,3.907 17.272,1.153 16.138,1.516 15.03,1.965 13.96,2.5 c 1.749,2.862 4.102,5.749 6.754,8.565 h 0 c 0.005,0.006 0.011,0.011 0.017,0.017 -2.211,1.546 -4.673,3.613 -6.944,6.015 -0.29,0.309 -0.569,0.62 -0.842,0.931 C 11.588,17.744 10.161,17.827 8.828,18.31 6.564,13.425 6.746,9.501 7.104,7.478 6.121,8.508 5.203,9.591 4.412,10.745 3.821,13.16 3.653,16.643 5.397,20.84 c -2.019,2.642 -2.114,6.389 -0.005,9.153 0.176,0.229 0.364,0.442 0.559,0.645 -0.921,3.137 -1.333,6.163 -1.46,8.761 0.237,0.322 0.237,0.582 0.472,0.896 1.199,1.538 2.705,2.834 4.16,4.008 -0.18,-2.75 0.014,-6.806 1.714,-11.372 1.173,0.089 2.366,-0.096 3.483,-0.566 0.64,0.563 1.31,1.132 2.025,1.711 2.453,1.942 4.9,3.453 7.285,4.643 -0.124,1.213 0.18,2.474 0.968,3.518 1.685,2.176 4.805,2.582 6.983,0.919 0.453,-0.347 0.811,-0.766 1.108,-1.216 3.889,0.866 7.287,1.019 9.806,1.019 0.386,0 2.177,-2.436 3.203,-3.946 -1.534,0.321 -6.083,0.946 -12.3,-0.84 -0.15,-0.698 -0.437,-1.376 -0.898,-1.98 -1.579,-2.07 -4.466,-2.518 -6.618,-1.133 -2.161,-1.172 -4.424,-2.641 -6.758,-4.49 -0.471,-0.373 -0.923,-0.745 -1.359,-1.118 1.426,-2.247 1.578,-5.127 0.318,-7.55 0.286,-0.286 0.567,-0.573 0.871,-0.857 2.311,-2.159 4.485,-3.887 6.519,-5.274 -0.082,-0.076 -0.156,-0.156 -0.236,-0.233 0.081,0.075 0.157,0.152 0.239,0.227 -10e-4,0 -10e-4,10e-4 -0.002,10e-4 3.121,2.886 6.43,5.621 9.564,8.065 -0.829,1.758 -0.699,3.899 0.562,5.547 z"
         id="path4934" />
    </g>
    <g
       transform="matrix(0.61311215,0,0,0.61311215,97.981454,169.79326)"
       id="g8666">
      <path
         style="fill:#3999c6;fill-opacity:1"
         inkscape:connector-curvature="0"
         d="m 330.74699,560.51888 c 0,5.638 -4.571,10.209 -10.21,10.209 -5.639,0 -10.209,-4.571 -10.209,-10.209 0,-5.638 4.57,-10.209 10.209,-10.209 5.639,0 10.21,4.571 10.21,10.209"
         id="path8414" />
      <polygon
         style="fill:#3999c6;fill-opacity:1"
         points="19.534,50 50,50 50,24.209 42.232,24.209 34.767,34.668 27.302,24.209 19.534,24.209 "
         id="polygon8416"
         transform="translate(285.76999,550.01888)" />
      <path
         style="fill:#3999c6;fill-opacity:1"
         inkscape:connector-curvature="0"
         d="m 300.06399,577.65488 c 0,3.168 -2.568,5.734 -5.736,5.734 -3.168,0 -5.736,-2.566 -5.736,-5.734 0,-3.168 2.568,-5.735 5.736,-5.735 3.168,0 5.736,2.567 5.736,5.735"
         id="path8418" />
      <polygon
         style="fill:#3999c6;fill-opacity:1"
         points="0,50 17.115,50 17.115,35.512 12.751,35.512 8.558,41.388 4.364,35.512 0,35.512 "
         id="polygon8420"
         transform="translate(285.76999,550.01888)" />
      <path
         style="opacity:0.2;fill:#ffffff"
         inkscape:connector-curvature="0"
         enable-background="new    "
         d="m 310.32799,560.51888 c 0,5.554 4.437,10.063 9.959,10.197 l 2.564,-20.132 c -0.744,-0.174 -1.516,-0.274 -2.314,-0.274 -5.639,0 -10.209,4.571 -10.209,10.209"
         id="path8422" />
      <polygon
         style="opacity:0.2;fill:#ffffff"
         enable-background="new    "
         points="30.832,50 33.086,32.314 27.304,24.209 19.533,24.209 19.533,50 "
         id="polygon8424"
         transform="translate(285.76999,550.01888)" />
      <path
         style="opacity:0.2;fill:#ffffff"
         inkscape:connector-curvature="0"
         enable-background="new    "
         d="m 288.59299,577.65488 c 0,3.167 2.567,5.734 5.735,5.734 0.2,0 0.387,-0.038 0.582,-0.057 l 1.407,-11.038 c -0.622,-0.23 -1.286,-0.374 -1.989,-0.374 -3.168,0 -5.735,2.568 -5.735,5.735"
         id="path8426" />
      <polygon
         style="opacity:0.2;fill:#ffffff"
         enable-background="new    "
         points="7.063,50 8.221,40.916 4.365,35.512 0.001,35.512 0.001,50 "
         id="polygon8428"
         transform="translate(285.76999,550.01888)" />
    </g>
    <text
       sodipodi:linespacing="125%"
       id="text8454"
       y="416.79709"
       x="385.44049"
       style="font-size:12px;font-style:normal;font-weight:normal;line-height:125%;letter-spacing:0px;word-spacing:0px;fill:#000000;fill-opacity:1;stroke:none;font-family:Sans"
       xml:space="preserve"><tspan
         style="font-size:14px;font-style:normal;font-variant:normal;font-weight:normal;font-stretch:normal;font-family:Segoe UI;-inkscape-font-specification:Segoe UI"
         y="416.79709"
         x="385.44049"
         id="tspan8456"
         sodipodi:role="line">Azure AD</tspan></text>
    <path
       inkscape:connector-curvature="0"
       id="path8458"
       d="m 351.51364,442.15885 0,26.88344"
       style="fill:none;stroke:#000000;stroke-width:1px;stroke-linecap:butt;stroke-linejoin:miter;stroke-opacity:1" />
    <path
       inkscape:connector-curvature="0"
       id="path8464"
       d="m 288.5563,479.17408 0,-10 132.31672,0 0,10"
       style="fill:none;stroke:#000000;stroke-width:1px;stroke-linecap:butt;stroke-linejoin:miter;stroke-opacity:1" />
    <text
       xml:space="preserve"
       style="font-size:12px;font-style:normal;font-weight:normal;line-height:125%;letter-spacing:0px;word-spacing:0px;fill:#000000;fill-opacity:1;stroke:none;font-family:Sans"
       x="549.74805"
       y="504.04144"
       id="text8466"
       sodipodi:linespacing="125%"><tspan
         id="tspan8519"
         sodipodi:role="line"
         x="551.66211"
         y="504.04144"
         style="font-size:14px;font-style:normal;font-variant:normal;font-weight:normal;font-stretch:normal;text-align:center;text-anchor:middle;font-family:Segoe UI;-inkscape-font-specification:Segoe UI">Azure </tspan><tspan
         id="tspan8523"
         sodipodi:role="line"
         x="549.74805"
         y="521.54144"
         style="font-size:14px;font-style:normal;font-variant:normal;font-weight:normal;font-stretch:normal;text-align:center;text-anchor:middle;font-family:Segoe UI;-inkscape-font-specification:Segoe UI">Subscriptions</tspan></text>
    <path
       sodipodi:nodetypes="cccc"
       style="fill:none;stroke:#000000;stroke-width:1px;stroke-linecap:butt;stroke-linejoin:miter;stroke-opacity:1"
       d="m 288.5563,503.52135 0,-34.34727 196.22829,0 0,10"
       id="path8481"
       inkscape:connector-curvature="0" />
    <g
       id="g8483"
       transform="translate(458.50364,483.16047)">
      <path
         id="path8485"
         d="m 39.337,19.525 c 2.222,-2.22 2.222,-5.824 0,-8.045 L 29.525,1.667 c -2.222,-2.222 -5.824,-2.222 -8.046,0 l -9.813,9.813 c -2.221,2.221 -2.221,5.825 0,8.045 l 8.633,8.633 v 16.641 l 5.202,5.202 4.519,-4.519 v -0.033 l 2.652,-2.653 -2.629,-2.629 2.629,-2.629 -2.629,-2.629 2.629,-2.629 -2.652,-2.653 v -0.784 l 9.317,-9.318 z M 25.502,4.039 c 1.783,0 3.229,1.446 3.229,3.229 0,1.784 -1.446,3.229 -3.229,3.229 -1.783,0 -3.229,-1.445 -3.229,-3.229 0,-1.784 1.446,-3.229 3.229,-3.229 z"
         inkscape:connector-curvature="0"
         style="fill:#fcd116" />
      <polygon
         id="polygon8487"
         points="24.758,30.008 22.728,29.008 22.728,43.961 24.758,45.961 "
         enable-background="new    "
         style="opacity:0.4;fill:#ff8c00" />
      <rect
         id="rect8489"
         height="2.6789999"
         width="18.639999"
         enable-background="new    "
         y="13.617"
         x="15.868"
         style="opacity:0.5;fill:#ffffff" />
      <rect
         id="rect8491"
         height="2.6789999"
         width="18.639999"
         enable-background="new    "
         y="17.976"
         x="15.868"
         style="opacity:0.5;fill:#ffffff" />
    </g>
    <path
       style="fill:none;stroke:#000000;stroke-width:1px;stroke-linecap:butt;stroke-linejoin:miter;stroke-opacity:1"
       d="m 483.90189,537.51897 0,26.88344"
       id="path8493"
       inkscape:connector-curvature="0" />
    <path
       style="fill:none;stroke:#000000;stroke-width:1px;stroke-linecap:butt;stroke-linejoin:miter;stroke-opacity:1"
       d="m 420.94455,574.5342 0,-10 132.31672,0 0,10"
       id="path8495"
       inkscape:connector-curvature="0" />
    <g
       id="g8499"
       transform="translate(528.88837,574.42191)">
      <path
         id="path8501"
         d="m 25.047,22.647 c -0.078,0 -0.15,-0.023 -0.22,-0.064 l -14.711,-8.49 c -0.14,-0.08 -0.223,-0.228 -0.223,-0.389 0,-0.156 0.083,-0.304 0.223,-0.382 L 24.732,4.887 c 0.139,-0.077 0.309,-0.077 0.442,0 l 14.714,8.495 c 0.133,0.078 0.221,0.224 0.221,0.382 0,0.163 -0.088,0.308 -0.221,0.387 l -14.619,8.433 c -0.069,0.04 -0.143,0.063 -0.222,0.063"
         inkscape:connector-curvature="0"
         style="fill:#3999c6" />
      <path
         id="path8503"
         d="m 22.932,43.284 c -0.08,0 -0.158,-0.019 -0.226,-0.059 L 8.042,34.761 C 7.9,34.682 7.816,34.537 7.816,34.375 V 17.39 c 0,-0.159 0.084,-0.305 0.226,-0.389 0.134,-0.077 0.306,-0.077 0.448,0 l 14.662,8.464 c 0.136,0.082 0.218,0.228 0.218,0.387 v 16.987 c 0,0.163 -0.083,0.305 -0.218,0.386 -0.073,0.041 -0.146,0.059 -0.22,0.059"
         inkscape:connector-curvature="0"
         style="fill:#59b4d9" />
      <path
         id="path8505"
         d="m 27.081,43.284 c -0.075,0 -0.152,-0.019 -0.226,-0.059 -0.136,-0.081 -0.22,-0.223 -0.22,-0.386 V 25.962 c 0,-0.159 0.084,-0.305 0.22,-0.387 l 14.66,-8.461 c 0.142,-0.078 0.308,-0.078 0.448,0 0.134,0.08 0.22,0.227 0.22,0.385 v 16.877 c 0,0.162 -0.085,0.306 -0.22,0.386 l -14.665,8.464 c -0.061,0.04 -0.14,0.058 -0.217,0.058"
         inkscape:connector-curvature="0"
         style="fill:#59b4d9" />
      <path
         id="path8507"
         d="m 27.081,43.284 c -0.075,0 -0.152,-0.019 -0.226,-0.059 -0.136,-0.081 -0.22,-0.223 -0.22,-0.386 V 25.962 c 0,-0.159 0.084,-0.305 0.22,-0.387 l 14.66,-8.461 c 0.142,-0.078 0.308,-0.078 0.448,0 0.134,0.08 0.22,0.227 0.22,0.385 v 16.877 c 0,0.162 -0.085,0.306 -0.22,0.386 l -14.665,8.464 c -0.061,0.04 -0.14,0.058 -0.217,0.058"
         inkscape:connector-curvature="0"
         style="opacity:0.5;fill:#ffffff" />
      <path
         id="path8509"
         d="m 9.558,45.171 c -0.247,0 -0.497,-0.063 -0.726,-0.195 L 1.987,41.024 C 0.835,40.358 0,38.911 0,37.582 V 12.418 C 0,11.089 0.835,9.641 1.987,8.977 L 8.832,5.025 c 0.697,-0.401 1.586,-0.163 1.987,0.532 0.402,0.696 0.163,1.585 -0.532,1.987 L 3.442,11.496 C 3.199,11.637 2.91,12.137 2.91,12.418 v 25.164 c 0,0.281 0.289,0.782 0.532,0.922 l 6.845,3.952 c 0.696,0.402 0.934,1.291 0.532,1.987 -0.269,0.467 -0.758,0.728 -1.261,0.728 z"
         inkscape:connector-curvature="0"
         style="fill:#7a7a7a" />
      <path
         id="path8511"
         d="m 40.442,4.829 c 0.247,0 0.497,0.063 0.726,0.195 l 6.845,3.952 C 49.165,9.642 50,11.089 50,12.418 v 25.164 c 0,1.329 -0.835,2.777 -1.987,3.441 l -6.845,3.952 c -0.697,0.401 -1.586,0.163 -1.987,-0.532 -0.402,-0.696 -0.163,-1.585 0.532,-1.987 l 6.845,-3.952 c 0.243,-0.141 0.532,-0.641 0.532,-0.922 V 12.418 c 0,-0.281 -0.289,-0.782 -0.532,-0.922 L 39.713,7.544 C 39.017,7.142 38.779,6.253 39.181,5.557 39.45,5.09 39.939,4.829 40.442,4.829 z"
         inkscape:connector-curvature="0"
         style="fill:#7a7a7a" />
    </g>
    <text
       sodipodi:linespacing="125%"
       id="text8513"
       y="594.32922"
       x="486.66119"
       style="font-size:12px;font-style:normal;font-weight:normal;line-height:125%;letter-spacing:0px;word-spacing:0px;fill:#000000;fill-opacity:1;stroke:none;font-family:Sans"
       xml:space="preserve"><tspan
         style="font-size:14px;font-style:normal;font-variant:normal;font-weight:normal;font-stretch:normal;text-align:center;text-anchor:middle;font-family:Segoe UI;-inkscape-font-specification:Segoe UI"
         y="594.32922"
         x="486.66119"
         id="tspan8515"
         sodipodi:role="line">Resource</tspan><tspan
         id="tspan8517"
         style="font-size:14px;font-style:normal;font-variant:normal;font-weight:normal;font-stretch:normal;text-align:center;text-anchor:middle;font-family:Segoe UI;-inkscape-font-specification:Segoe UI"
         y="611.82922"
         x="486.66119"
         sodipodi:role="line">Groups</tspan></text>
    <path
       inkscape:connector-curvature="0"
       id="path8525"
       d="m 421.51202,625.27057 0,26.88344"
       style="fill:none;stroke:#000000;stroke-width:1px;stroke-linecap:butt;stroke-linejoin:miter;stroke-opacity:1" />
    <path
       inkscape:connector-curvature="0"
       id="path8527"
       d="m 358.55468,662.2858 0,-10 132.31672,0 0,10"
       style="fill:none;stroke:#000000;stroke-width:1px;stroke-linecap:butt;stroke-linejoin:miter;stroke-opacity:1" />
    <text
       xml:space="preserve"
       style="font-size:12px;font-style:normal;font-weight:normal;line-height:125%;letter-spacing:0px;word-spacing:0px;fill:#000000;fill-opacity:1;stroke:none;font-family:Sans"
       x="426.7565"
       y="688.55182"
       id="text8529"
       sodipodi:linespacing="125%"><tspan
         sodipodi:role="line"
         x="426.7565"
         y="688.55182"
         style="font-size:14px;font-style:normal;font-variant:normal;font-weight:normal;font-stretch:normal;text-align:center;text-anchor:middle;font-family:Segoe UI;-inkscape-font-specification:Segoe UI"
         id="tspan8533">Resources</tspan></text>
    <g
       transform="translate(329.13598,507.67213)"
       id="g8636">
      <rect
         style="fill:#eb3c00"
         y="0"
         x="0"
         width="30"
         height="30"
         id="rect8626" />
      <polygon
         style="fill:#ffffff"
         points="10.6,19.1 10.6,10.7 17.3,9.1 17.3,21.8 7.6,20.5 17.2,23.9 22.5,22.5 22.5,6.1 17.2,6.1 7.5,9.6 7.5,20.4 "
         id="polygon8628" />
    </g>
    <path
       style="fill:none;stroke:#000000;stroke-width:1px;stroke-linecap:butt;stroke-linejoin:miter;stroke-opacity:1"
       d="m 238.74974,503.52135 0,-10 105.41835,0 0,10"
       id="path8642"
       inkscape:connector-curvature="0" />
    <g
       transform="matrix(0.61311215,0,0,0.61311215,142.74423,169.79326)"
       id="g8660">
      <path
         id="path8644"
         d="m 166.91018,560.51888 c 0,5.638 -4.571,10.209 -10.21,10.209 -5.639,0 -10.209,-4.571 -10.209,-10.209 0,-5.638 4.57,-10.209 10.209,-10.209 5.639,0 10.21,4.571 10.21,10.209"
         inkscape:connector-curvature="0"
         style="fill:#3999c6;fill-opacity:1" />
      <polygon
         transform="translate(121.93318,550.01888)"
         id="polygon8646"
         points="27.302,24.209 19.534,24.209 19.534,50 50,50 50,24.209 42.232,24.209 34.767,34.668 "
         style="fill:#3999c6;fill-opacity:1" />
      <path
         id="path8652"
         d="m 146.49118,560.51888 c 0,5.554 4.437,10.063 9.959,10.197 l 2.564,-20.132 c -0.744,-0.174 -1.516,-0.274 -2.314,-0.274 -5.639,0 -10.209,4.571 -10.209,10.209"
         enable-background="new    "
         inkscape:connector-curvature="0"
         style="opacity:0.2;fill:#ffffff" />
      <polygon
         transform="translate(121.93318,550.01888)"
         id="polygon8654"
         points="19.533,24.209 19.533,50 30.832,50 33.086,32.314 27.304,24.209 "
         enable-background="new    "
         style="opacity:0.2;fill:#ffffff" />
    </g>
    <text
       sodipodi:linespacing="125%"
       id="text8676"
       y="551.38574"
       x="238.52818"
       style="font-size:12px;font-style:normal;font-weight:normal;line-height:125%;letter-spacing:0px;word-spacing:0px;fill:#000000;fill-opacity:1;stroke:none;font-family:Sans"
       xml:space="preserve"><tspan
         style="font-size:14px;font-style:normal;font-variant:normal;font-weight:normal;font-stretch:normal;text-align:center;text-anchor:middle;font-family:Segoe UI;-inkscape-font-specification:Segoe UI"
         y="551.38574"
         x="238.52818"
         sodipodi:role="line"
         id="tspan8680">Users</tspan></text>
    <text
       xml:space="preserve"
       style="font-size:12px;font-style:normal;font-weight:normal;line-height:125%;letter-spacing:0px;word-spacing:0px;fill:#000000;fill-opacity:1;stroke:none;font-family:Sans"
       x="344.35129"
       y="551.38574"
       id="text8688"
       sodipodi:linespacing="125%"><tspan
         id="tspan8690"
         sodipodi:role="line"
         x="344.35129"
         y="551.38574"
         style="font-size:14px;font-style:normal;font-variant:normal;font-weight:normal;font-stretch:normal;text-align:center;text-anchor:middle;font-family:Segoe UI;-inkscape-font-specification:Segoe UI">Apps</tspan></text>
    <text
       sodipodi:linespacing="125%"
       id="text8692"
       y="551.38574"
       x="288.48755"
       style="font-size:12px;font-style:normal;font-weight:normal;line-height:125%;letter-spacing:0px;word-spacing:0px;fill:#000000;fill-opacity:1;stroke:none;font-family:Sans"
       xml:space="preserve"><tspan
         style="font-size:14px;font-style:normal;font-variant:normal;font-weight:normal;font-stretch:normal;text-align:center;text-anchor:middle;font-family:Segoe UI;-inkscape-font-specification:Segoe UI"
         y="551.38574"
         x="288.48755"
         sodipodi:role="line"
         id="tspan8694">Groups</tspan></text>
    <g
       transform="matrix(0.70439543,0,0,0.70439543,473.22107,665.67901)"
       id="g8721">
      <path
         style="fill:#0072c6"
         inkscape:connector-curvature="0"
         d="m 5.757,7.288 v 36.111 c 0,3.749 8.392,6.789 18.743,6.789 v -42.9 c 0,0 -18.743,0 -18.743,0 z"
         id="path8697" />
      <path
         style="fill:#0072c6"
         inkscape:connector-curvature="0"
         d="M 24.243,50.187 H 24.5 c 10.351,0 18.743,-3.038 18.743,-6.788 V 7.288 h -19 v 42.899 z"
         id="path8699" />
      <path
         style="opacity:0.15;fill:#ffffff"
         inkscape:connector-curvature="0"
         d="M 24.243,50.187 H 24.5 c 10.351,0 18.743,-3.038 18.743,-6.788 V 7.288 h -19 v 42.899 z"
         id="path8701" />
      <path
         style="fill:#ffffff"
         inkscape:connector-curvature="0"
         d="m 43.243,7.288 c 0,3.749 -8.392,6.788 -18.743,6.788 C 14.149,14.076 5.757,11.037 5.757,7.288 5.757,3.539 14.149,0.5 24.5,0.5 c 10.351,0 18.743,3.039 18.743,6.788"
         id="path8703" />
      <path
         style="fill:#7fba00"
         inkscape:connector-curvature="0"
         d="m 39.411,6.897 c 0,2.475 -6.676,4.479 -14.911,4.479 -8.235,0 -14.912,-2.004 -14.912,-4.479 0,-2.474 6.677,-4.479 14.912,-4.479 8.235,0 14.911,2.005 14.911,4.479"
         id="path8705" />
      <path
         style="fill:#b8d432"
         inkscape:connector-curvature="0"
         d="m 36.287,9.634 c 1.952,-0.757 3.125,-1.705 3.125,-2.735 0,-2.475 -6.676,-4.48 -14.912,-4.48 -8.235,0 -14.911,2.005 -14.911,4.48 0,1.03 1.173,1.978 3.125,2.735 C 15.44,8.576 19.7,7.893 24.5,7.893 c 4.801,0 9.059,0.683 11.787,1.741"
         id="path8707" />
      <path
         style="fill:#ffffff"
         inkscape:connector-curvature="0"
         d="m 18.547,32.354 c 0,1.122 -0.407,1.991 -1.221,2.607 -0.814,0.616 -1.938,0.924 -3.373,0.924 -1.221,0 -2.241,-0.22 -3.061,-0.66 v -2.64 c 0.946,0.803 1.988,1.205 3.126,1.205 0.55,0 0.975,-0.11 1.275,-0.33 0.3,-0.22 0.45,-0.511 0.45,-0.875 0,-0.357 -0.144,-0.668 -0.433,-0.932 -0.289,-0.264 -0.876,-0.605 -1.761,-1.023 -1.804,-0.846 -2.706,-2.002 -2.706,-3.464 0,-1.061 0.393,-1.912 1.18,-2.553 0.786,-0.64 1.831,-0.961 3.134,-0.961 1.155,0 2.111,0.152 2.871,0.454 v 2.466 c -0.797,-0.55 -1.705,-0.825 -2.722,-0.825 -0.511,0 -0.915,0.108 -1.212,0.325 -0.297,0.218 -0.445,0.508 -0.445,0.87 0,0.374 0.119,0.681 0.359,0.92 0.239,0.239 0.73,0.535 1.472,0.887 1.106,0.523 1.893,1.053 2.364,1.592 0.468,0.54 0.703,1.211 0.703,2.013 z"
         id="path8709" />
      <path
         style="fill:#ffffff"
         inkscape:connector-curvature="0"
         d="m 31.274,29.682 c 0,1.391 -0.317,2.599 -0.949,3.621 -0.633,1.023 -1.523,1.74 -2.672,2.153 l 3.431,3.176 H 27.62 l -2.45,-2.747 c -1.05,-0.038 -1.998,-0.316 -2.842,-0.833 -0.844,-0.516 -1.496,-1.225 -1.955,-2.124 -0.459,-0.899 -0.689,-1.902 -0.689,-3.007 0,-1.226 0.249,-2.319 0.746,-3.279 0.498,-0.96 1.197,-1.698 2.099,-2.215 0.902,-0.516 1.935,-0.775 3.102,-0.775 1.088,0 2.063,0.25 2.924,0.751 0.86,0.5 1.528,1.212 2.004,2.136 0.477,0.924 0.715,1.972 0.715,3.143 z m -2.804,0.149 c 0,-1.199 -0.261,-2.146 -0.784,-2.842 -0.523,-0.696 -1.237,-1.044 -2.145,-1.044 -0.924,0 -1.663,0.349 -2.219,1.047 -0.555,0.699 -0.833,1.628 -0.833,2.788 0,1.155 0.272,2.077 0.816,2.767 0.545,0.69 1.267,1.035 2.169,1.035 0.919,0 1.647,-0.334 2.186,-1.002 0.54,-0.667 0.81,-1.584 0.81,-2.749 z"
         id="path8711" />
      <polygon
         style="fill:#ffffff"
         points="40.273,35.679 33.229,35.679 33.229,23.851 35.893,23.851 35.893,33.518 40.273,33.518 "
         id="polygon8713" />
    </g>
    <text
       sodipodi:linespacing="125%"
       id="text3079"
       y="486.34631"
       x="256.96619"
       style="font-size:12px;font-style:normal;font-weight:normal;line-height:125%;letter-spacing:0px;word-spacing:0px;fill:#000000;fill-opacity:1;stroke:none;font-family:Sans"
       xml:space="preserve"><tspan
         style="font-size:10px;font-style:oblique;font-variant:normal;font-weight:normal;font-stretch:normal;font-family:Segoe UI;-inkscape-font-specification:Segoe UI Oblique"
         y="486.34631"
         x="256.96619"
         id="tspan3081"
         sodipodi:role="line">Has</tspan></text>
    <text
       xml:space="preserve"
       style="font-size:12px;font-style:normal;font-weight:normal;line-height:125%;letter-spacing:0px;word-spacing:0px;fill:#000000;fill-opacity:1;stroke:none;font-family:Sans"
       x="410.99872"
       y="461.46017"
       id="text3083"
       sodipodi:linespacing="125%"><tspan
         sodipodi:role="line"
         id="tspan3085"
         x="410.99872"
         y="461.46017"
         style="font-size:10px;font-style:oblique;font-variant:normal;font-weight:normal;font-stretch:normal;font-family:Segoe UI;-inkscape-font-specification:Segoe UI Oblique">Controls access for</tspan></text>
  </g>
</svg>
