<?xml version="1.0" encoding="UTF-8" standalone="no"?>
<!-- Created with Inkscape (http://www.inkscape.org/) -->

<svg
   xmlns:dc="http://purl.org/dc/elements/1.1/"
   xmlns:cc="http://creativecommons.org/ns#"
   xmlns:rdf="http://www.w3.org/1999/02/22-rdf-syntax-ns#"
   xmlns:svg="http://www.w3.org/2000/svg"
   xmlns="http://www.w3.org/2000/svg"
   xmlns:sodipodi="http://sodipodi.sourceforge.net/DTD/sodipodi-0.dtd"
   xmlns:inkscape="http://www.inkscape.org/namespaces/inkscape"
   width="744.09448819"
   height="1052.3622047"
   id="svg2987"
   version="1.1"
   inkscape:version="0.48.4 r9939"
   sodipodi:docname="glyphs.svg">
  <defs
     id="defs2989" />
  <sodipodi:namedview
     id="base"
     pagecolor="#ffffff"
     bordercolor="#666666"
     borderopacity="1.0"
     inkscape:pageopacity="0.0"
     inkscape:pageshadow="2"
     inkscape:zoom="1"
     inkscape:cx="208.32109"
     inkscape:cy="355.51569"
     inkscape:document-units="px"
     inkscape:current-layer="layer1"
     showgrid="false"
     inkscape:window-width="1366"
     inkscape:window-height="715"
     inkscape:window-x="-8"
     inkscape:window-y="-8"
     inkscape:window-maximized="1"
     inkscape:snap-global="true"
     inkscape:snap-bbox="true">
    <inkscape:grid
       type="xygrid"
       id="grid3008" />
  </sodipodi:namedview>
  <metadata
     id="metadata2992">
    <rdf:RDF>
      <cc:Work
         rdf:about="">
        <dc:format>image/svg+xml</dc:format>
        <dc:type
           rdf:resource="http://purl.org/dc/dcmitype/StillImage" />
        <dc:title></dc:title>
      </cc:Work>
    </rdf:RDF>
  </metadata>
  <g
     inkscape:label="Layer 1"
     inkscape:groupmode="layer"
     id="layer1">
    <path
       style="fill:#d5fff6;stroke:none"
       d="m 255.85898,646.65967 70.72321,-40.56231 0,5.7373 -70.72321,71.19043 z"
       id="path3809"
       inkscape:connector-curvature="0"
       sodipodi:nodetypes="ccccc" />
    <rect
       y="607.86218"
       x="260.80688"
       height="64"
       width="64"
       id="rect3797"
       style="color:#000000;fill:none;stroke:none;stroke-width:1;marker:none;visibility:visible;display:inline;overflow:visible;enable-background:accumulate"
       inkscape:export-filename="C:\Users\Ste\SkyDrive\Documents\Web\SGUK\SGN\img\rings.png"
       inkscape:export-xdpi="45"
       inkscape:export-ydpi="45" />
    <path
       sodipodi:type="arc"
       style="color:#000000;fill:none;stroke:#fee556;stroke-width:3.42242171000000010;marker:none;visibility:visible;display:inline;overflow:visible;enable-background:accumulate;stroke-miterlimit:4;stroke-dasharray:none;stroke-opacity:1"
       id="path2991"
       sodipodi:cx="249.54878"
       sodipodi:cy="681.62677"
       sodipodi:rx="15.148329"
       sodipodi:ry="15.148329"
       d="m 264.69711,681.62677 a 15.148329,15.148329 0 1 1 -30.29666,0 15.148329,15.148329 0 1 1 30.29666,0 z"
       transform="matrix(1.4609538,0,0,1.4609538,-150.44823,-359.33203)" />
    <rect
       style="color:#000000;fill:#7ea629;fill-opacity:1;stroke:none;stroke-width:2;marker:none;visibility:visible;display:inline;overflow:visible;enable-background:accumulate"
       id="rect3020"
       width="102.25121"
       height="329.32727"
       x="582.61267"
       y="539.73248" />
    <path
       style="fill:#353b1a;fill-opacity:1;stroke-width:0.20000000000000001;stroke-linejoin:round"
       inkscape:connector-curvature="0"
       d="m 625.71431,638.01101 c 20.5496,0 37.2083,16.65874 37.2083,37.20834 0,20.5496 -16.6587,37.2083 -37.2083,37.2083 -20.5496,0 -37.20834,-16.6587 -37.20834,-37.2083 0,-20.5496 16.65874,-37.20834 37.20834,-37.20834 z m 0,4.75 c -17.9262,0 -32.45833,14.53214 -32.45833,32.45834 0,17.9262 14.53213,32.4583 32.45833,32.4583 17.9262,0 32.4583,-14.5321 32.4583,-32.4583 0,-17.9262 -14.5321,-32.45834 -32.4583,-32.45834 z"
       id="path4"
       inkscape:export-filename="C:\Users\Ste\SkyDrive\Documents\Web\SGUK\SGN\img\down-green.png"
       inkscape:export-xdpi="130"
       inkscape:export-ydpi="130" />
    <path
       style="fill:#353b1a;fill-opacity:1;stroke-width:0.20000000000000001;stroke-linejoin:round"
       inkscape:connector-curvature="0"
       d="m 629.71429,655.59433 -8,0 0,24.75 -10,-10 0,10.5 14,14 14,-14 0,-10.5 -10,10 0,-24.75 z"
       id="path4-7"
       inkscape:export-filename="C:\Users\Ste\SkyDrive\Documents\Web\SGUK\SGN\img\down-green.png"
       inkscape:export-xdpi="130"
       inkscape:export-ydpi="130" />
    <path
       id="path3790"
       d="m 539.71431,638.01101 c 20.5496,0 37.2083,16.65874 37.2083,37.20834 0,20.5496 -16.6587,37.2083 -37.2083,37.2083 -20.5496,0 -37.20834,-16.6587 -37.20834,-37.2083 0,-20.5496 16.65874,-37.20834 37.20834,-37.20834 z m 0,4.75 c -17.9262,0 -32.45833,14.53214 -32.45833,32.45834 0,17.9262 14.53213,32.4583 32.45833,32.4583 17.9262,0 32.4583,-14.5321 32.4583,-32.4583 0,-17.9262 -14.5321,-32.45834 -32.4583,-32.45834 z"
       inkscape:connector-curvature="0"
       style="fill:#730710;fill-opacity:1;stroke-width:0.20000000000000001;stroke-linejoin:round"
       inkscape:export-filename="C:\Users\Ste\SkyDrive\Documents\Web\SGUK\SGN\img\down-red.png"
       inkscape:export-xdpi="130"
       inkscape:export-ydpi="130" />
    <path
       id="path3792"
       d="m 543.71429,655.59433 -8,0 0,24.75 -10,-10 0,10.5 14,14 14,-14 0,-10.5 -10,10 0,-24.75 z"
       inkscape:connector-curvature="0"
       style="fill:#730710;fill-opacity:1;stroke-width:0.20000000000000001;stroke-linejoin:round"
       inkscape:export-filename="C:\Users\Ste\SkyDrive\Documents\Web\SGUK\SGN\img\down-red.png"
       inkscape:export-xdpi="130"
       inkscape:export-ydpi="130" />
    <path
       inkscape:export-ydpi="130"
       inkscape:export-xdpi="130"
       inkscape:export-filename="C:\Users\Ste\SkyDrive\Documents\Web\SGUK\SGN\img\down-green.png"
       id="path3794"
       d="m 625.71431,729.90429 c 20.5496,0 37.2083,16.65874 37.2083,37.20834 0,20.5496 -16.6587,37.2083 -37.2083,37.2083 -20.5496,0 -37.20834,-16.6587 -37.20834,-37.2083 0,-20.5496 16.65874,-37.20834 37.20834,-37.20834 z m 0,4.75 c -17.9262,0 -32.45833,14.53214 -32.45833,32.45834 0,17.9262 14.53213,32.4583 32.45833,32.4583 17.9262,0 32.4583,-14.5321 32.4583,-32.4583 0,-17.9262 -14.5321,-32.45834 -32.4583,-32.45834 z"
       inkscape:connector-curvature="0"
       style="fill:#f9f9f9;fill-opacity:1;stroke-width:0.20000000000000001;stroke-linejoin:round" />
    <path
       inkscape:export-ydpi="130"
       inkscape:export-xdpi="130"
       inkscape:export-filename="C:\Users\Ste\SkyDrive\Documents\Web\SGUK\SGN\img\down-green.png"
       id="path3796"
       d="m 629.71429,747.48761 -8,0 0,24.75 -10,-10 0,10.5 14,14 14,-14 0,-10.5 -10,10 0,-24.75 z"
       inkscape:connector-curvature="0"
       style="fill:#f9f9f9;fill-opacity:1;stroke-width:0.20000000000000001;stroke-linejoin:round" />
    <path
       inkscape:export-ydpi="130"
       inkscape:export-xdpi="130"
       inkscape:export-filename="C:\Users\Ste\SkyDrive\Documents\Web\SGUK\SGN\img\down-red.png"
       style="fill:#1a1a1a;fill-opacity:1;stroke-width:0.20000000000000001;stroke-linejoin:round"
       inkscape:connector-curvature="0"
       d="m 539.71431,729.90429 c 20.5496,0 37.2083,16.65874 37.2083,37.20834 0,20.5496 -16.6587,37.2083 -37.2083,37.2083 -20.5496,0 -37.20834,-16.6587 -37.20834,-37.2083 0,-20.5496 16.65874,-37.20834 37.20834,-37.20834 z m 0,4.75 c -17.9262,0 -32.45833,14.53214 -32.45833,32.45834 0,17.9262 14.53213,32.4583 32.45833,32.4583 17.9262,0 32.4583,-14.5321 32.4583,-32.4583 0,-17.9262 -14.5321,-32.45834 -32.4583,-32.45834 z"
       id="path3798" />
    <path
       inkscape:export-ydpi="130"
       inkscape:export-xdpi="130"
       inkscape:export-filename="C:\Users\Ste\SkyDrive\Documents\Web\SGUK\SGN\img\down-red.png"
       style="fill:#1a1a1a;fill-opacity:1;stroke-width:0.20000000000000001;stroke-linejoin:round"
       inkscape:connector-curvature="0"
       d="m 543.71429,747.48761 -8,0 0,24.75 -10,-10 0,10.5 14,14 14,-14 0,-10.5 -10,10 0,-24.75 z"
       id="path3800" />
    <rect
       style="color:#000000;fill:none;stroke:none;stroke-width:1;marker:none;visibility:visible;display:inline;overflow:visible;enable-background:accumulate"
       id="rect2993"
       width="63.5"
       height="63.5"
       x="186.04161"
       y="608.04059" />
    <path
       transform="matrix(1.5183192,0,0,1.5183192,-158.89471,-392.56482)"
       d="m 264.69711,681.62677 a 15.148329,15.148329 0 1 1 -30.29666,0 15.148329,15.148329 0 1 1 30.29666,0 z"
       sodipodi:ry="15.148329"
       sodipodi:rx="15.148329"
       sodipodi:cy="681.62677"
       sodipodi:cx="249.54878"
       id="path2995"
       style="color:#000000;fill:none;stroke:#ffcc00;stroke-width:3.29311518;marker:none;visibility:visible;display:inline;overflow:visible;enable-background:accumulate;stroke-miterlimit:4;stroke-dasharray:none"
       sodipodi:type="arc" />
    <path
       transform="matrix(1.4609538,0,0,1.4609538,-77.141358,-361.33203)"
       d="m 264.69711,681.62677 a 15.148329,15.148329 0 1 1 -30.29666,0 15.148329,15.148329 0 1 1 30.29666,0 z"
       sodipodi:ry="15.148329"
       sodipodi:rx="15.148329"
       sodipodi:cy="681.62677"
       sodipodi:cx="249.54878"
       id="path3793"
       style="color:#000000;fill:none;stroke:#fee556;stroke-width:4.10690594;stroke-miterlimit:4;stroke-opacity:1;stroke-dasharray:none;marker:none;visibility:visible;display:inline;overflow:visible;enable-background:accumulate"
       sodipodi:type="arc"
       inkscape:export-filename="C:\Users\Ste\SkyDrive\Documents\Web\SGUK\SGN\img\rings.png"
       inkscape:export-xdpi="45"
       inkscape:export-ydpi="45" />
    <path
       sodipodi:type="arc"
       style="color:#000000;fill:none;stroke:#ffcc00;stroke-width:3.95173812;stroke-miterlimit:4;stroke-dasharray:none;marker:none;visibility:visible;display:inline;overflow:visible;enable-background:accumulate"
       id="path3799"
       sodipodi:cx="249.54878"
       sodipodi:cy="681.62677"
       sodipodi:rx="15.148329"
       sodipodi:ry="15.148329"
       d="m 264.69711,681.62677 a 15.148329,15.148329 0 1 1 -30.29666,0 15.148329,15.148329 0 1 1 30.29666,0 z"
       transform="matrix(1.5183192,0,0,1.5183192,-81.587838,-390.56482)"
       inkscape:export-filename="C:\Users\Ste\SkyDrive\Documents\Web\SGUK\SGN\img\rings.png"
       inkscape:export-xdpi="45"
       inkscape:export-ydpi="45" />
    <path
       sodipodi:nodetypes="cssssc"
       inkscape:connector-curvature="0"
       id="path3795"
       d="m 275.06423,616.14181 c 1.17737,-0.79543 2.43541,-1.48053 3.75927,-2.04047 2.64771,-1.11989 5.55872,-1.73916 8.61438,-1.73916 12.22262,0 22.13101,9.90839 22.13101,22.13101 0,3.05566 -0.61927,5.96667 -1.73916,8.61438 -0.55994,1.32386 -1.24504,2.5819 -2.04047,3.75927"
       style="color:#000000;fill:none;stroke:#fee556;stroke-width:6;stroke-miterlimit:4;stroke-opacity:1;stroke-dasharray:none;marker:none;visibility:visible;display:inline;overflow:visible;enable-background:accumulate"
       inkscape:export-filename="C:\Users\Ste\SkyDrive\Documents\Web\SGUK\SGN\img\rings.png"
       inkscape:export-xdpi="45"
       inkscape:export-ydpi="45" />
    <path
       style="color:#000000;fill:none;stroke:#fee556;stroke-width:3.42242169;stroke-miterlimit:4;stroke-opacity:1;marker:none;visibility:visible;display:inline;overflow:visible;enable-background:accumulate"
       d="m 260.26027,692.33826 c -0.68533,0.68532 -1.43602,1.30529 -2.24192,1.84974 -0.80589,0.54446 -1.667,1.0134 -2.57316,1.39667 -1.81232,0.76655 -3.80486,1.19043 -5.89641,1.19043 -8.36619,0 -15.14833,-6.78214 -15.14833,-15.14833 0,-2.09155 0.42388,-4.08409 1.19043,-5.89641 0.38327,-0.90616 0.85221,-1.76727 1.39667,-2.57316 0.54445,-0.8059 1.16442,-1.55659 1.84974,-2.24192"
       id="path3787"
       inkscape:connector-curvature="0"
       sodipodi:nodetypes="cssssssc"
       transform="matrix(1.4609538,0,0,1.4609538,-150.44823,-359.33203)" />
    <g
       id="g3005"
       transform="translate(-211,161)"
       inkscape:export-filename="C:\Users\Ste\SkyDrive\Documents\Web\SGUK\SGN\img\blog.png"
       inkscape:export-xdpi="38.700001"
       inkscape:export-ydpi="38.700001">
      <path
         style="fill:#353b1a;fill-opacity:1;stroke-width:0.2;stroke-linejoin:round"
         inkscape:connector-curvature="0"
         d="m 592.50597,474.21931 c 0,-20.5496 16.65874,-37.2083 37.20834,-37.2083 20.5496,0 37.2083,16.6587 37.2083,37.2083 0,20.5496 -16.6587,37.20834 -37.2083,37.20834 -20.5496,0 -37.20834,-16.65874 -37.20834,-37.20834 z m 4.75,0 c 0,17.9262 14.53214,32.45833 32.45834,32.45833 17.9262,0 32.4583,-14.53213 32.4583,-32.45833 0,-17.9262 -14.5321,-32.4583 -32.4583,-32.4583 -17.9262,0 -32.45834,14.5321 -32.45834,32.4583 z"
         id="path3001"
         inkscape:export-filename="C:\Users\Ste\SkyDrive\Documents\Web\SGUK\SGN\img\down-green.png"
         inkscape:export-xdpi="130"
         inkscape:export-ydpi="130" />
      <path
         style="fill:#353b1a;fill-opacity:1;stroke-width:0.2;stroke-linejoin:round"
         inkscape:connector-curvature="0"
         d="m 610.08929,470.21933 0,8 24.75,0 -10,10 10.5,0 14,-14 -14,-14 -10.5,0 10,10 -24.75,0 z"
         id="path3003"
         inkscape:export-filename="C:\Users\Ste\SkyDrive\Documents\Web\SGUK\SGN\img\down-green.png"
         inkscape:export-xdpi="130"
         inkscape:export-ydpi="130" />
    </g>
  </g>
</svg>
