<?xml version="1.0" encoding="UTF-8" standalone="no"?>
<!-- Created with Inkscape (http://www.inkscape.org/) -->

<svg
   xmlns:dc="http://purl.org/dc/elements/1.1/"
   xmlns:cc="http://creativecommons.org/ns#"
   xmlns:rdf="http://www.w3.org/1999/02/22-rdf-syntax-ns#"
   xmlns:svg="http://www.w3.org/2000/svg"
   xmlns="http://www.w3.org/2000/svg"
   xmlns:sodipodi="http://sodipodi.sourceforge.net/DTD/sodipodi-0.dtd"
   xmlns:inkscape="http://www.inkscape.org/namespaces/inkscape"
   width="744.09448819"
   height="1052.3622047"
   id="svg3074"
   version="1.1"
   inkscape:version="0.48.4 r9939"
   sodipodi:docname="SGN-Brand.svg">
  <defs
     id="defs3076" />
  <sodipodi:namedview
     id="base"
     pagecolor="#ffffff"
     bordercolor="#666666"
     borderopacity="1.0"
     inkscape:pageopacity="0.0"
     inkscape:pageshadow="2"
     inkscape:zoom="2.4828385"
     inkscape:cx="318.22898"
     inkscape:cy="281.21982"
     inkscape:document-units="px"
     inkscape:current-layer="layer1"
     showgrid="false"
     inkscape:window-width="1366"
     inkscape:window-height="715"
     inkscape:window-x="-8"
     inkscape:window-y="-8"
     inkscape:window-maximized="1">
    <inkscape:grid
       type="xygrid"
       id="grid3100" />
  </sodipodi:namedview>
  <metadata
     id="metadata3079">
    <rdf:RDF>
      <cc:Work
         rdf:about="">
        <dc:format>image/svg+xml</dc:format>
        <dc:type
           rdf:resource="http://purl.org/dc/dcmitype/StillImage" />
        <dc:title></dc:title>
      </cc:Work>
    </rdf:RDF>
  </metadata>
  <g
     inkscape:label="Layer 1"
     inkscape:groupmode="layer"
     id="layer1">
    <rect
       style="color:#000000;fill:#000000;fill-opacity:1;fill-rule:nonzero;stroke:none;stroke-width:1;marker:none;visibility:visible;display:inline;overflow:visible;enable-background:accumulate"
       id="rect3152"
       width="663.15381"
       height="307.60382"
       x="34.314327"
       y="359.37189" />
    <rect
       style="color:#000000;fill:#353b1a;fill-opacity:1;fill-rule:nonzero;stroke:none;stroke-width:1;marker:none;visibility:visible;display:inline;overflow:visible;enable-background:accumulate"
       id="rect3102"
       width="149.64087"
       height="149.64087"
       x="78.971405"
       y="400.51587" />
    <g
       id="g3144"
       transform="matrix(0.74820435,0,0,2.9928174,52.467598,-2132.7371)">
      <rect
         y="846.44421"
         x="35.423222"
         height="50"
         width="50"
         id="rect3126"
         style="color:#000000;fill:#d93030;fill-opacity:1;fill-rule:nonzero;stroke:none;stroke-width:1;marker:none;visibility:visible;display:inline;overflow:visible;enable-background:accumulate" />
      <rect
         style="color:#000000;fill:#d9c99a;fill-opacity:1;fill-rule:nonzero;stroke:none;stroke-width:1;marker:none;visibility:visible;display:inline;overflow:visible;enable-background:accumulate"
         id="rect3128"
         width="50"
         height="50"
         x="85.423225"
         y="846.44421" />
      <rect
         y="846.44421"
         x="135.42322"
         height="50"
         width="50"
         id="rect3130"
         style="color:#000000;fill:#7ea629;fill-opacity:1;fill-rule:nonzero;stroke:none;stroke-width:1;marker:none;visibility:visible;display:inline;overflow:visible;enable-background:accumulate" />
      <rect
         style="color:#000000;fill:#353b1a;fill-opacity:1;fill-rule:nonzero;stroke:none;stroke-width:1;marker:none;visibility:visible;display:inline;overflow:visible;enable-background:accumulate"
         id="rect3132"
         width="50"
         height="50"
         x="185.42322"
         y="846.44421" />
    </g>
    <path
       inkscape:export-ydpi="360"
       inkscape:export-xdpi="360"
       inkscape:export-filename="C:\Users\Ste\Desktop\SGN\logo400.png"
       inkscape:connector-curvature="0"
       id="path3862"
       d="m 118.03951,407.31774 c -18.01908,0.72603 -32.266245,12.60554 -32.266245,27.20743 l 0,40.98119 0,16.70706 17.387175,0.0424 16.62211,0.085 17.00465,0 17.00464,-17.00465 -17.00464,0 0,-40.81114 c 0,-5.65235 7.58407,-10.20279 17.00464,-10.20279 9.42058,0 17.00464,4.55044 17.00464,10.20279 l 0,6.80186 51.01394,0 0,-6.80186 c 0,-15.07292 -15.16815,-27.20743 -34.00929,-27.20743 l -68.01858,0 c -0.58877,0 -1.16176,-0.0234 -1.74304,0 z m 35.75233,68.01857 17.00464,0 0,40.81115 c 0,5.65234 -7.58406,10.20277 -17.00464,10.20277 -9.42057,0 -17.00464,-4.55043 -17.00464,-10.20277 l 0,-6.80186 -51.013935,0 0,6.80186 c 0,15.07291 15.168135,27.20744 34.009285,27.20744 l 68.01858,0 c 18.84114,-8e-5 34.00929,-12.13453 34.00929,-27.20744 l 0,-57.73076 -34.00929,-0.085 -17.00465,0 -17.00464,17.00464 z"
       style="color:#000000;fill:#ffffff;fill-opacity:1;fill-rule:nonzero;stroke:none;stroke-width:0.1;marker:none;visibility:visible;display:inline;overflow:visible;enable-background:accumulate" />
    <rect
       style="color:#000000;fill:#d9c99a;fill-opacity:1;fill-rule:nonzero;stroke:none;stroke-width:1;marker:none;visibility:visible;display:inline;overflow:visible;enable-background:accumulate"
       id="rect3160"
       width="37.410217"
       height="149.64087"
       x="-512.74652"
       y="506.86548"
       transform="matrix(0,-1,1,0,0,0)" />
    <rect
       y="506.86548"
       x="-475.3363"
       height="149.64087"
       width="37.410217"
       id="rect3162"
       style="color:#000000;fill:#7ea629;fill-opacity:1;fill-rule:nonzero;stroke:none;stroke-width:1;marker:none;visibility:visible;display:inline;overflow:visible;enable-background:accumulate"
       transform="matrix(0,-1,1,0,0,0)" />
    <path
       style="color:#000000;fill:#353b1a;fill-opacity:1;fill-rule:nonzero;stroke:none;stroke-width:1;marker:none;visibility:visible;display:inline;overflow:visible;enable-background:accumulate"
       d="m 506.85836,400.52546 0,3.3903 0,8.55758 0,28.85263 149.64087,0 0,-28.85263 0,-8.55758 0,-3.3903 -149.64087,0 z"
       id="rect3164"
       inkscape:connector-curvature="0" />
    <path
       style="color:#000000;fill:#d93030;fill-opacity:1;fill-rule:nonzero;stroke:none;stroke-width:1;marker:none;visibility:visible;display:inline;overflow:visible;enable-background:accumulate"
       d="m 506.85836,509.34242 0,16.34356 0,8.27708 0,16.20326 149.64087,0 0,-16.20326 0,-8.27708 0,-16.34356 -149.64087,0 z"
       id="rect3154"
       inkscape:connector-curvature="0" />
    <path
       style="color:#000000;fill:#000000;fill-opacity:1;fill-rule:nonzero;stroke:none;stroke-width:0.1;marker:none;visibility:visible;display:inline;overflow:visible;enable-background:accumulate"
       d="m 545.93356,407.31774 c -18.01907,0.72603 -32.26625,12.60554 -32.26625,27.20743 l 0,40.98119 0,16.70706 17.38718,0.0424 16.62211,0.085 17.00465,0 17.00464,-17.00465 -17.00464,0 0,-40.81114 c 0,-5.65235 7.58407,-10.20279 17.00464,-10.20279 9.42057,0 17.00464,4.55044 17.00464,10.20279 l 0,6.80186 51.01394,0 0,-6.80186 c 0,-15.07292 -15.16815,-27.20743 -34.0093,-27.20743 l -68.01857,0 c -0.58877,0 -1.16175,-0.0234 -1.74304,0 z m 35.75233,68.01857 17.00464,0 0,40.81115 c 0,5.65234 -7.58407,10.20277 -17.00464,10.20277 -9.42057,0 -17.00464,-4.55043 -17.00464,-10.20277 l 0,-6.80186 -51.01394,0 0,6.80186 c 0,15.07291 15.16814,27.20744 34.00929,27.20744 l 68.01857,0 c 18.84115,-8e-5 34.0093,-12.13453 34.0093,-27.20744 l 0,-57.73076 -34.0093,-0.085 -17.00464,0 -17.00464,17.00464 z"
       id="path3166"
       inkscape:connector-curvature="0"
       inkscape:export-filename="C:\Users\Ste\Desktop\SGN\logo400.png"
       inkscape:export-xdpi="360"
       inkscape:export-ydpi="360" />
    <g
       id="g3206"
       inkscape:export-filename="C:\Users\Ste\SkyDrive\Documents\Web\SGUK\sgn\favicon.png"
       inkscape:export-xdpi="115.2"
       inkscape:export-ydpi="115.2"
       transform="matrix(0.74820435,0,0,0.74820435,5.6473812,-229.74318)">
      <g
         id="g3200">
        <rect
           y="-582.10486"
           x="-1042.3622"
           height="200"
           width="50"
           id="rect3186"
           style="color:#000000;fill:#d93030;fill-opacity:1;fill-rule:nonzero;stroke:none;stroke-width:1;marker:none;visibility:visible;display:inline;overflow:visible;enable-background:accumulate"
           transform="matrix(0,-1,-1,0,0,0)" />
        <rect
           style="color:#000000;fill:#d9c99a;fill-opacity:1;fill-rule:nonzero;stroke:none;stroke-width:1;marker:none;visibility:visible;display:inline;overflow:visible;enable-background:accumulate"
           id="rect3188"
           width="50"
           height="200"
           x="-992.36218"
           y="-582.10486"
           transform="matrix(0,-1,-1,0,0,0)" />
        <rect
           y="-582.10486"
           x="-942.36218"
           height="200"
           width="50"
           id="rect3190"
           style="color:#000000;fill:#7ea629;fill-opacity:1;fill-rule:nonzero;stroke:none;stroke-width:1;marker:none;visibility:visible;display:inline;overflow:visible;enable-background:accumulate"
           transform="matrix(0,-1,-1,0,0,0)" />
        <rect
           style="color:#000000;fill:#353b1a;fill-opacity:1;fill-rule:nonzero;stroke:none;stroke-width:1;marker:none;visibility:visible;display:inline;overflow:visible;enable-background:accumulate"
           id="rect3192"
           width="50"
           height="200"
           x="-892.36218"
           y="-582.10486"
           transform="matrix(0,-1,-1,0,0,0)" />
      </g>
      <path
         inkscape:export-ydpi="360"
         inkscape:export-xdpi="360"
         inkscape:export-filename="C:\Users\Ste\Desktop\SGN\logo400.png"
         inkscape:connector-curvature="0"
         id="path3194"
         d="m 434.32067,851.45311 c -24.08309,0.97037 -43.12491,16.84773 -43.12491,36.36364 l 0,54.77272 0,22.32955 23.23855,0.0567 22.216,0.11363 22.72727,0 22.72727,-22.72727 -22.72727,0 0,-54.54545 c 0,-7.55455 10.13636,-13.63637 22.72727,-13.63637 12.59091,0 22.72727,6.08182 22.72727,13.63637 l 0,9.09091 68.18182,0 0,-9.09091 c 0,-20.14546 -20.27273,-36.36364 -45.45455,-36.36364 l -90.90908,0 c -0.78691,0 -1.55273,-0.0313 -2.32964,0 z m 47.78418,90.90909 22.72727,0 0,54.54546 c 0,7.55454 -10.13636,13.63634 -22.72727,13.63634 -12.59091,0 -22.72727,-6.0818 -22.72727,-13.63634 l 0,-9.09091 -68.18182,0 0,9.09091 c 0,20.14544 20.27273,36.36364 45.45455,36.36364 l 90.90908,0 c 25.18182,-1e-4 45.45455,-16.2182 45.45455,-36.36364 l 0,-77.15909 -45.45455,-0.11364 -22.72727,0 -22.72727,22.72727 z"
         style="color:#000000;fill:#000000;fill-opacity:1;fill-rule:nonzero;stroke:none;stroke-width:0.1;marker:none;visibility:visible;display:inline;overflow:visible;enable-background:accumulate" />
    </g>
    <path
       style="color:#000000;fill:#000000;fill-opacity:1;fill-rule:nonzero;stroke:none;stroke-width:0.1;marker:none;visibility:visible;display:inline;overflow:visible;enable-background:accumulate"
       d="M 117.4374,52.37762 C 90.946001,53.444945 70,70.908692 70,92.374536 l 0,60.245334 0,24.56061 25.562404,0.0624 24.437596,0.12498 25,0 25.00001,-24.99806 -25.00001,0 0,-59.995356 c 0,-8.309363 11.14999,-14.998849 25.00001,-14.998849 13.85,0 24.99999,6.689486 24.99999,14.998849 l 0,9.999226 75,0 0,-9.999226 C 270,70.216149 247.7,52.377528 220,52.377528 l -100,0 c -0.8656,0 -1.708,-0.03443 -2.5626,0 z m 52.56261,99.99227 24.99999,0 0,59.99537 c 0,8.30936 -11.14999,14.99882 -24.99999,14.99882 C 156.14999,227.36408 145,220.67462 145,212.36526 l 0,-9.99923 -75,0 0,9.99923 c 0,22.15828 22.300002,39.99692 50,39.99692 l 100,0 c 27.7,-1.1e-4 50,-17.83864 50,-39.99692 l 0,-84.86844 -50,-0.12499 -25,0 -24.99999,24.99806 z"
       id="path3214"
       inkscape:connector-curvature="0"
       inkscape:export-filename="C:\Users\Ste\Desktop\SGN\logo400.png"
       inkscape:export-xdpi="360"
       inkscape:export-ydpi="360" />
    <flowRoot
       xml:space="preserve"
       id="flowRoot3216"
       style="font-size:32px;font-style:normal;font-variant:normal;font-weight:normal;font-stretch:normal;line-height:125%;letter-spacing:0px;word-spacing:0px;color:#000000;fill:#000000;fill-opacity:1;fill-rule:nonzero;stroke:none;stroke-width:1px;marker:none;visibility:visible;display:inline;overflow:visible;enable-background:accumulate;font-family:League Gothic;-inkscape-font-specification:League Gothic"><flowRegion
         id="flowRegion3218"><rect
           id="rect3220"
           width="158"
           height="77"
           x="287"
           y="568.36218" /></flowRegion><flowPara
         id="flowPara3222"
         style="fill:#ffffff;-inkscape-font-specification:Sans;font-family:Sans;font-weight:normal;font-style:normal;font-stretch:normal;font-variant:normal;text-anchor:middle;text-align:center">REAL</flowPara><flowPara
         style="fill:#ffffff;-inkscape-font-specification:Sans;font-family:Sans;font-weight:normal;font-style:normal;font-stretch:normal;font-variant:normal;text-anchor:middle;text-align:center"
         id="flowPara3224">FAVICON</flowPara></flowRoot>    <g
       id="g3034"
       transform="matrix(0.99729751,0,0,0.99750476,-2.0275425,4.935815)"
       style="stroke:none"
       inkscape:export-filename="C:\Users\Ste\SkyDrive\Documents\Web\SGUK\SGN\favicon2.png"
       inkscape:export-xdpi="77.18"
       inkscape:export-ydpi="77.18">
      <path
         id="rect3013"
         d="m 291.53125,696.53125 0,37.40625 0,37.40625 0,37.40625 0,37.40625 149.65625,0 0,-37.40625 0,-37.40625 0,-37.40625 0,-37.40625 -149.65625,0 z"
         style="color:#000000;fill:none;stroke:none;stroke-width:0.75015390000000004;marker:none;visibility:visible;display:inline;overflow:visible;enable-background:accumulate"
         inkscape:connector-curvature="0" />
    </g>
    <path
       inkscape:export-ydpi="360"
       inkscape:export-xdpi="360"
       inkscape:export-filename="C:\Users\Ste\Desktop\SGN\logo400.png"
       inkscape:connector-curvature="0"
       id="path3021"
       d="m 329.17607,709.36496 c -17.21942,0.69377 -30.83432,12.0452 -30.83432,25.99799 l 0,39.15946 0,15.9644 16.61556,0.0405 15.88444,0.0812 16.25,0 16.25,-16.24873 -16.25,0 0,-38.99699 c 0,-5.40107 7.2475,-9.74924 16.25,-9.74924 9.0025,0 16.25,4.34817 16.25,9.74924 l 0,6.4995 48.75,0 0,-6.4995 c 0,-14.40288 -14.495,-25.99798 -32.5,-25.99798 l -65,0 c -0.56264,0 -1.1102,-0.0224 -1.66568,0 z m 34.16568,64.99497 16.25,0 0,38.99698 c 0,5.40108 -7.2475,9.74923 -16.25,9.74923 -9.0025,0 -16.25,-4.34815 -16.25,-9.74923 l 0,-6.49949 -48.75,0 0,6.49949 c 0,14.40287 14.49501,25.99799 32.5,25.99799 l 65,0 c 18.005,-7e-5 32.5,-11.59512 32.5,-25.99799 l 0,-55.16448 -32.5,-0.0812 -16.25,0 -16.25,16.24874 z"
       style="color:#000000;fill:#000000;fill-opacity:1;fill-rule:nonzero;stroke:none;stroke-width:0.1;marker:none;visibility:visible;display:inline;overflow:visible;enable-background:accumulate" />
  </g>
</svg>
